<svg width="20" height="20" viewBox="0 0 20 20" fill="none" xmlns="http://www.w3.org/2000/svg">
<g id="icon/add">
<path id="vector" d="M9.25003 9.25006L9.25003 5.75006C9.25003 5.53756 9.32149 5.35944 9.46441 5.21569C9.60732 5.07194 9.78441 5.00006 9.99566 5.00006C10.2069 5.00006 10.3854 5.07194 10.5313 5.21569C10.6771 5.35944 10.75 5.53756 10.75 5.75006L10.75 9.25006L14.25 9.25006C14.4625 9.25006 14.6407 9.32152 14.7844 9.46444C14.9282 9.60735 15 9.78444 15 9.99569C15 10.2069 14.9282 10.3855 14.7844 10.5313C14.6407 10.6771 14.4625 10.7501 14.25 10.7501L10.75 10.7501L10.75 14.2501C10.75 14.4626 10.6786 14.6407 10.5357 14.7844C10.3927 14.9282 10.2157 15.0001 10.0044 15.0001C9.79315 15.0001 9.61461 14.9282 9.46878 14.7844C9.32295 14.6407 9.25003 14.4626 9.25003 14.2501L9.25003 10.7501L5.75003 10.7501C5.53753 10.7501 5.35941 10.6786 5.21566 10.5357C5.0719 10.3928 5.00003 10.2157 5.00003 10.0044C5.00003 9.79319 5.0719 9.61464 5.21566 9.46881C5.35941 9.32298 5.53753 9.25006 5.75003 9.25006L9.25003 9.25006Z" fill="#B24040"/>
</g>
</svg>
