<svg width="25" height="25" viewBox="0 0 25 25" fill="none" xmlns="http://www.w3.org/2000/svg">
<g id="icon/custom_typography">
<path id="vector" d="M13.75 20.3125V21.5625C13.75 21.8281 13.6607 22.0508 13.482 22.2305C13.3034 22.4102 13.082 22.5 12.818 22.5C12.5539 22.5 12.3307 22.4102 12.1484 22.2305C11.9661 22.0508 11.875 21.8281 11.875 21.5625V17.1875C11.875 16.9219 11.9643 16.6992 12.143 16.5195C12.3216 16.3398 12.543 16.25 12.807 16.25C13.0711 16.25 13.2943 16.3398 13.4766 16.5195C13.6589 16.6992 13.75 16.9219 13.75 17.1875V18.4375H20.3052C20.5705 18.4375 20.7943 18.5268 20.9766 18.7055C21.1589 18.8841 21.25 19.1055 21.25 19.3695C21.25 19.6336 21.1602 19.8568 20.9805 20.0391C20.8008 20.2214 20.5781 20.3125 20.3125 20.3125H13.75ZM4.6875 20.3125C4.42188 20.3125 4.19922 20.2232 4.01953 20.0445C3.83984 19.8659 3.75 19.6445 3.75 19.3805C3.75 19.1164 3.83984 18.8932 4.01953 18.7109C4.19922 18.5286 4.42188 18.4375 4.6875 18.4375H9.6875C9.95312 18.4375 10.1758 18.5268 10.3555 18.7055C10.5352 18.8841 10.625 19.1055 10.625 19.3695C10.625 19.6336 10.5352 19.8568 10.3555 20.0391C10.1758 20.2214 9.95312 20.3125 9.6875 20.3125H4.6875ZM10.2344 10.8854H14.7734L15.5729 13.151C15.6424 13.342 15.753 13.4896 15.9049 13.5938C16.0569 13.6979 16.224 13.75 16.4062 13.75C16.7219 13.75 16.9744 13.6198 17.1638 13.3594C17.3532 13.099 17.3851 12.8199 17.2594 12.5221L13.724 3.09896C13.6545 2.90799 13.5435 2.76042 13.3909 2.65625C13.2383 2.55208 13.0628 2.5 12.8646 2.5H12.1354C11.9372 2.5 11.7617 2.55208 11.6091 2.65625C11.4565 2.76042 11.3455 2.90799 11.276 3.09896L7.74193 12.5234C7.63273 12.8203 7.66545 13.099 7.8401 13.3594C8.01493 13.6198 8.25425 13.75 8.55807 13.75C8.75547 13.75 8.93663 13.6936 9.10156 13.5807C9.26649 13.4679 9.38585 13.3188 9.45964 13.1333L10.2344 10.8854ZM10.8333 9.24479L12.5521 4.58333L14.1927 9.24479H10.8333Z" fill="#AB2020"/>
</g>
</svg>
