<svg width="24" height="25" viewBox="0 0 24 25" fill="none" xmlns="http://www.w3.org/2000/svg">
<g id="left icon">
<path id="vector" d="M12.0003 13.7751L7.90035 17.8751C7.71702 18.0584 7.50868 18.1459 7.27535 18.1376C7.04201 18.1293 6.83368 18.0334 6.65035 17.8501C6.46701 17.6668 6.37535 17.4543 6.37535 17.2126C6.37535 16.9709 6.46701 16.7584 6.65035 16.5751L10.7253 12.5001L6.62535 8.4001C6.44201 8.21676 6.35451 8.00426 6.36285 7.7626C6.37118 7.52093 6.46701 7.30843 6.65035 7.1251C6.83368 6.94176 7.04618 6.8501 7.28785 6.8501C7.52951 6.8501 7.74201 6.94176 7.92535 7.1251L12.0003 11.2251L16.1003 7.1251C16.2837 6.94176 16.4962 6.8501 16.7378 6.8501C16.9795 6.8501 17.192 6.94176 17.3753 7.1251C17.5587 7.30843 17.6503 7.52093 17.6503 7.7626C17.6503 8.00426 17.5587 8.21676 17.3753 8.4001L13.2753 12.5001L17.3753 16.6001C17.5587 16.7834 17.6503 16.9918 17.6503 17.2251C17.6503 17.4584 17.5587 17.6668 17.3753 17.8501C17.192 18.0334 16.9795 18.1251 16.7378 18.1251C16.4962 18.1251 16.2837 18.0334 16.1003 17.8501L12.0003 13.7751Z" fill="#AB2020"/>
</g>
</svg>
