<svg width="25" height="25" viewBox="0 0 25 25" fill="none" xmlns="http://www.w3.org/2000/svg">
<g id="icon/for_you">
<path id="vector" d="M12.5 12.5C13.5243 12.5 14.5399 12.4392 15.5469 12.3177C16.5538 12.1962 17.5521 11.9965 18.5417 11.7188C18.9063 11.5972 19.2405 11.6493 19.5443 11.875C19.8481 12.1007 20 12.4045 20 12.7865V19.8438C20 20.2431 19.8814 20.6064 19.6443 20.9339C19.4069 21.2613 19.1002 21.4969 18.724 21.6406C17.7344 21.9705 16.7117 22.1962 15.656 22.3177C14.6003 22.4392 13.5483 22.5 12.5 22.5C11.4517 22.5 10.3997 22.4392 9.34401 22.3177C8.28828 22.1962 7.26562 21.9705 6.27604 21.6406C5.89983 21.4969 5.59306 21.2613 5.35573 20.9339C5.11858 20.6064 5 20.2431 5 19.8438V12.7865C5 12.4045 5.15191 12.1007 5.45573 11.875C5.75955 11.6493 6.09375 11.5972 6.45833 11.7188C7.44792 11.9965 8.44618 12.1962 9.45312 12.3177C10.4601 12.4392 11.4757 12.5 12.5 12.5ZM18.125 19.8438V13.75C17.1875 13.9757 16.2543 14.1363 15.3255 14.2318C14.3967 14.3273 13.4549 14.375 12.5 14.375C11.5451 14.375 10.6033 14.3273 9.67448 14.2318C8.74566 14.1363 7.8125 13.9757 6.875 13.75V19.8438C7.79514 20.1389 8.72396 20.3429 9.66146 20.4557C10.599 20.5686 11.5451 20.625 12.5 20.625C13.4549 20.625 14.401 20.5686 15.3385 20.4557C16.276 20.3429 17.2049 20.1389 18.125 19.8438ZM12.5 2.5C13.5417 2.5 14.4271 2.86458 15.1562 3.59375C15.8854 4.32292 16.25 5.20833 16.25 6.25C16.25 7.29167 15.8854 8.17708 15.1562 8.90625C14.4271 9.63542 13.5417 10 12.5 10C11.4583 10 10.5729 9.63542 9.84375 8.90625C9.11458 8.17708 8.75 7.29167 8.75 6.25C8.75 5.20833 9.11458 4.32292 9.84375 3.59375C10.5729 2.86458 11.4583 2.5 12.5 2.5ZM12.5055 8.125C13.0227 8.125 13.4635 7.94089 13.8281 7.57266C14.1927 7.20443 14.375 6.76172 14.375 6.24453C14.375 5.72734 14.1909 5.28646 13.8227 4.92188C13.4544 4.55729 13.0117 4.375 12.4945 4.375C11.9773 4.375 11.5365 4.55912 11.1719 4.92734C10.8073 5.29557 10.625 5.73828 10.625 6.25547C10.625 6.77266 10.8091 7.21354 11.1773 7.57812C11.5456 7.94271 11.9883 8.125 12.5055 8.125Z" fill="#AB2020"/>
</g>
</svg>
