<svg width="9" height="16" viewBox="0 0 9 16" fill="none" xmlns="http://www.w3.org/2000/svg">
<g id="seta2-direita">
<path id="arrow_forward_ios" d="M6.42702 7.9992L0.973936 2.54593C0.739189 2.31131 0.62322 2.02898 0.626026 1.69893C0.628833 1.36888 0.747546 1.08655 0.982166 0.851929C1.21678 0.61731 1.5009 0.5 1.83453 0.5C2.16827 0.5 2.45246 0.61731 2.68708 0.851929L8.39985 6.56221C8.60346 6.76583 8.75433 6.99215 8.85244 7.24119C8.95067 7.49022 8.99979 7.7429 8.99979 7.9992C8.99979 8.25551 8.95067 8.50818 8.85244 8.75722C8.75433 9.00625 8.60346 9.23258 8.39985 9.4362L2.67866 15.1572C2.44404 15.3919 2.16311 15.5061 1.83587 15.4997C1.50862 15.4934 1.22769 15.3728 0.993073 15.1381C0.758326 14.9034 0.640953 14.6193 0.640953 14.2857C0.640953 13.9521 0.758326 13.668 0.993073 13.4333L6.42702 7.9992Z" fill="#AB2020"/>
</g>
</svg>
