<svg width="25" height="25" viewBox="0 0 25 25" fill="none" xmlns="http://www.w3.org/2000/svg">
<g id="icon/contrast">
<path id="vector" d="M12.5073 22.5C11.1309 22.5 9.83507 22.2396 8.61979 21.7188C7.40451 21.1979 6.34115 20.4818 5.42969 19.5703C4.51823 18.6589 3.80208 17.5958 3.28125 16.3813C2.76042 15.1667 2.5 13.8689 2.5 12.488C2.5 11.1071 2.76042 9.81337 3.28125 8.60677C3.80208 7.40017 4.51823 6.34115 5.42969 5.42969C6.34115 4.51823 7.40417 3.80208 8.61875 3.28125C9.83333 2.76042 11.1311 2.5 12.512 2.5C13.8929 2.5 15.1866 2.76042 16.3932 3.28125C17.5998 3.80208 18.6589 4.51823 19.5703 5.42969C20.4818 6.34115 21.1979 7.40208 21.7188 8.6125C22.2396 9.82309 22.5 11.1165 22.5 12.4927C22.5 13.8691 22.2396 15.1649 21.7188 16.3802C21.1979 17.5955 20.4818 18.6589 19.5703 19.5703C18.6589 20.4818 17.5979 21.1979 16.3875 21.7188C15.1769 22.2396 13.8835 22.5 12.5073 22.5ZM13.4375 20.5729C15.4688 20.3299 17.1745 19.4469 18.5547 17.924C19.9349 16.401 20.625 14.5931 20.625 12.5C20.625 10.4069 19.9349 8.59896 18.5547 7.07604C17.1745 5.55312 15.4688 4.67014 13.4375 4.42708V20.5729Z" fill="#AB2020"/>
</g>
</svg>
