<svg width="20" height="20" viewBox="0 0 20 20" fill="none" xmlns="http://www.w3.org/2000/svg">
<g id="icon/format_letter_spacing_2">
<path id="vector" d="M5.52084 17.4792C5.36806 17.632 5.19445 17.7084 5.00001 17.7084C4.80556 17.7084 4.63195 17.632 4.47917 17.4792L2.51792 15.518C2.36709 15.3671 2.29167 15.1933 2.29167 14.9963C2.29167 14.7994 2.36806 14.627 2.52084 14.4792L4.47917 12.5209C4.63195 12.3681 4.80556 12.2917 5.00001 12.2917C5.19445 12.2917 5.36806 12.3648 5.52084 12.5109C5.67362 12.6703 5.75001 12.8519 5.75001 13.0557C5.75001 13.2593 5.67362 13.4352 5.52084 13.5834L4.87501 14.2501H15.125L14.4583 13.5834C14.3056 13.4306 14.2326 13.2535 14.2396 13.0521C14.2465 12.8508 14.3264 12.6737 14.4792 12.5209C14.6319 12.3681 14.8056 12.2917 15 12.2917C15.1945 12.2917 15.3681 12.3681 15.5208 12.5209L17.4821 14.4821C17.6329 14.633 17.7083 14.8069 17.7083 15.0038C17.7083 15.2008 17.6319 15.3731 17.4792 15.5209L15.5208 17.4792C15.3681 17.632 15.1945 17.7084 15 17.7084C14.8056 17.7084 14.6319 17.6353 14.4792 17.4892C14.3264 17.3298 14.25 17.1482 14.25 16.9444C14.25 16.7408 14.3264 16.5649 14.4792 16.4167L15.125 15.7501H4.87501L5.54167 16.4167C5.69445 16.5695 5.76737 16.7466 5.76042 16.948C5.75348 17.1494 5.67362 17.3265 5.52084 17.4792ZM6.18751 10.0165L9.02167 2.47548C9.07667 2.3252 9.17014 2.20839 9.30209 2.12506C9.43403 2.04173 9.57695 2.00006 9.73084 2.00006H10.2692C10.4231 2.00006 10.566 2.04332 10.6979 2.12985C10.8299 2.21638 10.9236 2.33284 10.9792 2.47923L13.8125 10.0209C13.9097 10.257 13.8871 10.4792 13.7446 10.6876C13.6019 10.8959 13.4024 11.0001 13.1458 11.0001C12.9975 11.0001 12.8593 10.9549 12.7313 10.8646C12.6032 10.7744 12.5122 10.6528 12.4583 10.5001L11.8125 8.70839H8.19584L7.54563 10.5294C7.49132 10.6794 7.40327 10.7954 7.28146 10.8774C7.15952 10.9592 7.02403 11.0001 6.87501 11.0001C6.61112 11.0001 6.40626 10.8942 6.26042 10.6824C6.11459 10.4707 6.09028 10.2487 6.18751 10.0165ZM8.66667 7.39589H11.3542L10.0404 3.66673H9.95834L8.66667 7.39589Z" fill="#B24040"/>
</g>
</svg>
