<svg width="20" height="20" viewBox="0 0 20 20" fill="none" xmlns="http://www.w3.org/2000/svg">
<g id="icon/format_line_spacing">
<path id="vector" d="M4.24999 6.875L3.58332 7.54167C3.43055 7.69444 3.25228 7.77083 3.04853 7.77083C2.84492 7.77083 2.66902 7.69444 2.52082 7.54167C2.36805 7.38889 2.29166 7.21181 2.29166 7.01042C2.29166 6.80903 2.36805 6.63194 2.52082 6.47917L4.47645 4.52917C4.55173 4.45417 4.63318 4.39931 4.72082 4.36458C4.8086 4.32986 4.90263 4.3125 5.00291 4.3125C5.10318 4.3125 5.19721 4.32986 5.28499 4.36458C5.37277 4.39931 5.45138 4.45139 5.52082 4.52083L7.47916 6.47917C7.63193 6.63194 7.70832 6.80556 7.70832 7C7.70832 7.19444 7.63193 7.36806 7.47916 7.52083C7.32638 7.67361 7.1493 7.75 6.94791 7.75C6.74652 7.75 6.56943 7.67361 6.41666 7.52083L5.74999 6.875V13.125L6.41666 12.4583C6.56943 12.3056 6.7477 12.2292 6.95145 12.2292C7.15506 12.2292 7.33096 12.3056 7.47916 12.4583C7.63193 12.6111 7.70832 12.7882 7.70832 12.9896C7.70832 13.191 7.63193 13.3681 7.47916 13.5208L5.52353 15.4708C5.44825 15.5458 5.3668 15.6007 5.27916 15.6354C5.19138 15.6701 5.09735 15.6875 4.99707 15.6875C4.8968 15.6875 4.80277 15.6701 4.71499 15.6354C4.62721 15.6007 4.5486 15.5486 4.47916 15.4792L2.52082 13.5208C2.36805 13.3681 2.29513 13.191 2.30207 12.9896C2.30902 12.7882 2.38888 12.6111 2.54166 12.4583C2.69443 12.3056 2.87152 12.2292 3.07291 12.2292C3.2743 12.2292 3.45138 12.3056 3.60416 12.4583L4.24999 13.125V6.875ZM10.75 15C10.5375 15 10.3594 14.9285 10.2156 14.7856C10.0719 14.6427 9.99999 14.4656 9.99999 14.2544C9.99999 14.0431 10.0719 13.8646 10.2156 13.7188C10.3594 13.5729 10.5375 13.5 10.75 13.5H17.25C17.4625 13.5 17.6406 13.5715 17.7844 13.7144C17.9281 13.8573 18 14.0344 18 14.2456C18 14.4569 17.9281 14.6354 17.7844 14.7812C17.6406 14.9271 17.4625 15 17.25 15H10.75ZM10.75 10.75C10.5375 10.75 10.3594 10.6785 10.2156 10.5356C10.0719 10.3927 9.99999 10.2156 9.99999 10.0044C9.99999 9.79313 10.0719 9.61458 10.2156 9.46875C10.3594 9.32292 10.5375 9.25 10.75 9.25H17.25C17.4625 9.25 17.6406 9.32146 17.7844 9.46438C17.9281 9.60729 18 9.78438 18 9.99563C18 10.2069 17.9281 10.3854 17.7844 10.5312C17.6406 10.6771 17.4625 10.75 17.25 10.75H10.75ZM10.75 6.5C10.5375 6.5 10.3594 6.42854 10.2156 6.28563C10.0719 6.14271 9.99999 5.96563 9.99999 5.75438C9.99999 5.54313 10.0719 5.36458 10.2156 5.21875C10.3594 5.07292 10.5375 5 10.75 5H17.25C17.4625 5 17.6406 5.07146 17.7844 5.21437C17.9281 5.35729 18 5.53437 18 5.74562C18 5.95687 17.9281 6.13542 17.7844 6.28125C17.6406 6.42708 17.4625 6.5 17.25 6.5H10.75Z" fill="#B24040"/>
</g>
</svg>
