<svg width="20" height="20" viewBox="0 0 20 20" xmlns="http://www.w3.org/2000/svg">
<g id="icon/match_case">
<path id="vector" d="M4.24123 12.2851L3.54064 14.2627C3.48237 14.4256 3.38755 14.5515 3.25618 14.6405C3.1248 14.7293 2.97883 14.7738 2.81825 14.7738C2.54097 14.7738 2.3191 14.6593 2.15261 14.4303C1.98613 14.2015 1.95586 13.9615 2.0618 13.7104L5.15069 5.53846C5.21033 5.37557 5.30961 5.2451 5.44855 5.14706C5.58764 5.04902 5.73763 5 5.89851 5H6.53418C6.70066 5 6.8533 5.04902 6.99209 5.14706C7.13072 5.2451 7.22781 5.37707 7.28336 5.54299L10.3709 13.733C10.4617 13.9894 10.4314 14.227 10.2801 14.4457C10.1287 14.6644 9.91684 14.7738 9.64441 14.7738C9.47793 14.7738 9.32658 14.7247 9.19036 14.6267C9.05415 14.5287 8.95577 14.3967 8.89523 14.2308L8.20485 12.2851H4.24123ZM4.74069 10.8824H7.692L6.26039 6.83258H6.17094L4.74069 10.8824ZM13.4811 15C12.7092 15 12.1076 14.8001 11.6763 14.4005C11.2449 14.0008 11.0293 13.4465 11.0293 12.7376C11.0293 12.0739 11.279 11.5422 11.7784 11.1425C12.2779 10.7428 12.9363 10.543 13.7536 10.543C14.0563 10.543 14.3665 10.5732 14.6844 10.6335C15.0022 10.6938 15.3049 10.7768 15.5924 10.8824V10.6787C15.5924 10.2279 15.4408 9.86252 15.1375 9.58258C14.834 9.30279 14.4308 9.1629 13.9277 9.1629C13.7056 9.1629 13.4849 9.19872 13.2654 9.27036C13.046 9.34201 12.8455 9.44947 12.6638 9.59276C12.478 9.72851 12.3029 9.77376 12.1385 9.72851C11.9741 9.68326 11.839 9.6003 11.733 9.47964C11.6271 9.35897 11.5779 9.21192 11.5855 9.03846C11.593 8.86501 11.6801 8.72044 11.8465 8.60475C12.1492 8.37353 12.4822 8.20513 12.8455 8.09955C13.2087 7.99397 13.5871 7.94118 13.9806 7.94118C14.9492 7.94118 15.6946 8.17873 16.2168 8.65385C16.7389 9.12896 17 9.79638 17 10.6561V14.0649C17 14.266 16.9304 14.4344 16.7911 14.5701C16.6517 14.7059 16.4868 14.7738 16.2962 14.7738C16.0995 14.7738 15.933 14.7041 15.7968 14.5647C15.6606 14.4252 15.5924 14.26 15.5924 14.0692V13.9593H15.5243C15.267 14.3213 14.9719 14.5852 14.6389 14.7511C14.306 14.917 13.92 15 13.4811 15ZM13.7209 13.8009C14.2407 13.8009 14.6826 13.6237 15.0465 13.2692C15.4105 12.9148 15.5924 12.4902 15.5924 11.9955C15.3806 11.8718 15.1422 11.7798 14.8773 11.7195C14.6125 11.6591 14.3306 11.629 14.0317 11.629C13.5284 11.629 13.1482 11.7232 12.8909 11.9118C12.6336 12.1003 12.5049 12.3761 12.5049 12.7391C12.5049 13.0548 12.6184 13.3107 12.8455 13.5068C13.0725 13.7029 13.3643 13.8009 13.7209 13.8009Z" fill="#fff"/>
</g>
</svg>
